<svg xmlns="http://www.w3.org/2000/svg" viewBox="0 0 1600 1000" width="1600" height="1000" role="img">
  <defs>
    <linearGradient id="bg" gradientTransform="rotate(120 0.5 0.5)">
      <stop offset="0" stop-color="#0B0B0C"/>
      <stop offset="0.55" stop-color="#17140F"/>
      <stop offset="1" stop-color="#221B12"/>
    </linearGradient>
    <radialGradient id="glow" cx="0.8" cy="0.35" r="0.75">
      <stop offset="0" stop-color="#C67C3D" stop-opacity="0.5"/>
      <stop offset="0.4" stop-color="#C67C3D" stop-opacity="0.175"/>
      <stop offset="1" stop-color="#C67C3D" stop-opacity="0"/>
    </radialGradient>
    <radialGradient id="vig" cx="0.5" cy="0.42" r="0.85">
      <stop offset="0.55" stop-color="#000" stop-opacity="0"/>
      <stop offset="1" stop-color="#000" stop-opacity="0.6"/>
    </radialGradient>
    <filter id="grain">
      <feTurbulence type="fractalNoise" baseFrequency="0.9" numOctaves="2" stitchTiles="stitch" result="n"/>
      <feColorMatrix in="n" type="matrix" values="0 0 0 0 0  0 0 0 0 0  0 0 0 0 0  0 0 0 0.6 0"/>
    </filter>
  </defs>
  <rect width="1600" height="1000" fill="url(#bg)"/>
  <rect width="1600" height="1000" fill="url(#glow)"/>
  <line x1="90" y1="120" x2="90" y2="880" fill="none" stroke="#C67C3D" stroke-width="10" opacity="0.35"/><line x1="132" y1="120" x2="132" y2="880" fill="none" stroke="#C67C3D" stroke-width="10" opacity="0.61"/><line x1="174" y1="120" x2="174" y2="880" fill="none" stroke="#C67C3D" stroke-width="10" opacity="0.87"/><line x1="216" y1="120" x2="216" y2="880" fill="none" stroke="#C67C3D" stroke-width="10" opacity="0.48"/><line x1="258" y1="120" x2="258" y2="880" fill="none" stroke="#C67C3D" stroke-width="10" opacity="0.74"/><line x1="300" y1="120" x2="300" y2="880" fill="none" stroke="#C67C3D" stroke-width="10" opacity="0.35"/><line x1="342" y1="120" x2="342" y2="880" fill="none" stroke="#C67C3D" stroke-width="10" opacity="0.61"/><line x1="384" y1="120" x2="384" y2="880" fill="none" stroke="#C67C3D" stroke-width="10" opacity="0.87"/><line x1="426" y1="120" x2="426" y2="880" fill="none" stroke="#C67C3D" stroke-width="10" opacity="0.48"/><line x1="468" y1="120" x2="468" y2="880" fill="none" stroke="#C67C3D" stroke-width="10" opacity="0.74"/><line x1="510" y1="120" x2="510" y2="880" fill="none" stroke="#C67C3D" stroke-width="10" opacity="0.35"/><line x1="552" y1="120" x2="552" y2="880" fill="none" stroke="#C67C3D" stroke-width="10" opacity="0.61"/><line x1="594" y1="120" x2="594" y2="880" fill="none" stroke="#C67C3D" stroke-width="10" opacity="0.87"/><line x1="636" y1="120" x2="636" y2="880" fill="none" stroke="#C67C3D" stroke-width="10" opacity="0.48"/><line x1="678" y1="120" x2="678" y2="880" fill="none" stroke="#C67C3D" stroke-width="10" opacity="0.74"/><line x1="720" y1="120" x2="720" y2="880" fill="none" stroke="#C67C3D" stroke-width="10" opacity="0.35"/><line x1="762" y1="120" x2="762" y2="880" fill="none" stroke="#C67C3D" stroke-width="10" opacity="0.61"/><line x1="804" y1="120" x2="804" y2="880" fill="none" stroke="#C67C3D" stroke-width="10" opacity="0.87"/><line x1="846" y1="120" x2="846" y2="880" fill="none" stroke="#C67C3D" stroke-width="10" opacity="0.48"/><line x1="888" y1="120" x2="888" y2="880" fill="none" stroke="#C67C3D" stroke-width="10" opacity="0.74"/><line x1="930" y1="120" x2="930" y2="880" fill="none" stroke="#C67C3D" stroke-width="10" opacity="0.35"/><line x1="972" y1="120" x2="972" y2="880" fill="none" stroke="#C67C3D" stroke-width="10" opacity="0.61"/><line x1="1014" y1="120" x2="1014" y2="880" fill="none" stroke="#C67C3D" stroke-width="10" opacity="0.87"/><line x1="1056" y1="120" x2="1056" y2="880" fill="none" stroke="#C67C3D" stroke-width="10" opacity="0.48"/><line x1="1098" y1="120" x2="1098" y2="880" fill="none" stroke="#C67C3D" stroke-width="10" opacity="0.74"/><line x1="1140" y1="120" x2="1140" y2="880" fill="none" stroke="#C67C3D" stroke-width="10" opacity="0.35"/><line x1="1182" y1="120" x2="1182" y2="880" fill="none" stroke="#C67C3D" stroke-width="10" opacity="0.61"/><line x1="1224" y1="120" x2="1224" y2="880" fill="none" stroke="#C67C3D" stroke-width="10" opacity="0.87"/><line x1="1266" y1="120" x2="1266" y2="880" fill="none" stroke="#C67C3D" stroke-width="10" opacity="0.48"/><line x1="1308" y1="120" x2="1308" y2="880" fill="none" stroke="#C67C3D" stroke-width="10" opacity="0.74"/><line x1="1350" y1="120" x2="1350" y2="880" fill="none" stroke="#C67C3D" stroke-width="10" opacity="0.35"/><line x1="1392" y1="120" x2="1392" y2="880" fill="none" stroke="#C67C3D" stroke-width="10" opacity="0.61"/><line x1="1434" y1="120" x2="1434" y2="880" fill="none" stroke="#C67C3D" stroke-width="10" opacity="0.87"/><line x1="1476" y1="120" x2="1476" y2="880" fill="none" stroke="#C67C3D" stroke-width="10" opacity="0.48"/>
  <rect width="1600" height="1000" fill="url(#vig)"/>
  <rect width="1600" height="1000" filter="url(#grain)" opacity="0.05"/>
</svg>