<svg xmlns="http://www.w3.org/2000/svg" viewBox="0 0 1600 1000" width="1600" height="1000" role="img">
  <defs>
    <linearGradient id="bg" gradientTransform="rotate(150 0.5 0.5)">
      <stop offset="0" stop-color="#20130a"/>
      <stop offset="0.45" stop-color="#3a2411"/>
      <stop offset="0.8" stop-color="#6d4322"/>
      <stop offset="1" stop-color="#a86a31"/>
    </linearGradient>
    <radialGradient id="sun" cx="0.5" cy="0.22" r="0.62">
      <stop offset="0" stop-color="#ffd89a" stop-opacity="0.95"/>
      <stop offset="0.26" stop-color="#e6a24e" stop-opacity="0.52"/>
      <stop offset="0.65" stop-color="#f9bb71" stop-opacity="0.14"/>
      <stop offset="1" stop-color="#f9bb71" stop-opacity="0"/>
    </radialGradient>
    <radialGradient id="vig" cx="0.5" cy="0.5" r="0.82">
      <stop offset="0.52" stop-color="#20130a" stop-opacity="0"/>
      <stop offset="1" stop-color="#100802" stop-opacity="0.5"/>
    </radialGradient>
    <filter id="grain">
      <feTurbulence type="fractalNoise" baseFrequency="0.85" numOctaves="2" stitchTiles="stitch" result="n"/>
      <feColorMatrix in="n" type="matrix" values="0 0 0 0 0  0 0 0 0 0  0 0 0 0 0  0 0 0 0.55 0"/>
    </filter>
  </defs>
  <rect width="1600" height="1000" fill="url(#bg)"/>
  <rect x="0" y="850.0" width="1600" height="75.0" fill="#a86a31" opacity="0.55"/><line x1="0" y1="850.0" x2="1600" y2="850.0" stroke="#160c04" stroke-width="2.5" opacity="0.55"/><line x1="0" y1="853.0" x2="1600" y2="853.0" stroke="#ffd89a" stroke-width="1" opacity="0.22"/><rect x="0" y="925.0" width="1600" height="75.0" fill="#6d4322" opacity="0.55"/><line x1="0" y1="925.0" x2="1600" y2="925.0" stroke="#160c04" stroke-width="2.5" opacity="0.55"/><line x1="0" y1="928.0" x2="1600" y2="928.0" stroke="#ffd89a" stroke-width="1" opacity="0.22"/>
     <path d="M420 880 L420 460 L800 235 L1180 460 L1180 880" fill="none" stroke="#ffd89a" stroke-width="3.5" stroke-linecap="square" opacity="0.92"/>
     <path d="M560 880 L560 555 L800 400 L1040 555 L1040 880" fill="none" stroke="#ffd89a" stroke-width="1.6" opacity="0.5"/>
     <rect x="690" y="640" width="220" height="240" fill="#ffd89a" opacity="0.16"/>
     <rect x="690" y="640" width="220" height="240" fill="none" stroke="#ffd89a" stroke-width="1.6" opacity="0.55"/>
     <line x1="800" y1="235" x2="800" y2="880" fill="none" stroke="#f6efe2" stroke-width="1.6" opacity="0.35"/>
     <line x1="260" y1="880" x2="1340" y2="880" fill="none" stroke="#ffd89a" stroke-width="2.5" stroke-linecap="square" opacity="0.5"/>
  <rect width="1600" height="1000" fill="url(#sun)"/>
  <rect width="1600" height="1000" fill="url(#vig)"/>
  <rect width="1600" height="1000" filter="url(#grain)" opacity="0.06"/>
</svg>