<svg xmlns="http://www.w3.org/2000/svg" viewBox="0 0 1600 1000" width="1600" height="1000" role="img">
  <defs>
    <linearGradient id="bg" gradientTransform="rotate(155 0.5 0.5)">
      <stop offset="0" stop-color="#20130a"/>
      <stop offset="0.45" stop-color="#3a2411"/>
      <stop offset="0.8" stop-color="#6d4322"/>
      <stop offset="1" stop-color="#ffd89a"/>
    </linearGradient>
    <radialGradient id="sun" cx="0.7" cy="0.24" r="0.62">
      <stop offset="0" stop-color="#ffd89a" stop-opacity="1"/>
      <stop offset="0.26" stop-color="#e6a24e" stop-opacity="0.55"/>
      <stop offset="0.65" stop-color="#f9bb71" stop-opacity="0.14"/>
      <stop offset="1" stop-color="#f9bb71" stop-opacity="0"/>
    </radialGradient>
    <radialGradient id="vig" cx="0.5" cy="0.5" r="0.82">
      <stop offset="0.52" stop-color="#20130a" stop-opacity="0"/>
      <stop offset="1" stop-color="#100802" stop-opacity="0.5"/>
    </radialGradient>
    <filter id="grain">
      <feTurbulence type="fractalNoise" baseFrequency="0.85" numOctaves="2" stitchTiles="stitch" result="n"/>
      <feColorMatrix in="n" type="matrix" values="0 0 0 0 0  0 0 0 0 0  0 0 0 0 0  0 0 0 0.55 0"/>
    </filter>
  </defs>
  <rect width="1600" height="1000" fill="url(#bg)"/>
  <rect x="90.0" y="0" width="30.0" height="1000" fill="#6d4322" opacity="0.5"/><rect x="90.0" y="0" width="2.5" height="1000" fill="#ffd89a" opacity="0.16"/><rect x="118.0" y="0" width="2" height="1000" fill="#160c04" opacity="0.4"/><rect x="140.0" y="0" width="30.0" height="1000" fill="#a86a31" opacity="0.5"/><rect x="140.0" y="0" width="2.5" height="1000" fill="#ffd89a" opacity="0.16"/><rect x="168.0" y="0" width="2" height="1000" fill="#160c04" opacity="0.4"/><rect x="190.0" y="0" width="30.0" height="1000" fill="#6d4322" opacity="0.5"/><rect x="190.0" y="0" width="2.5" height="1000" fill="#ffd89a" opacity="0.16"/><rect x="218.0" y="0" width="2" height="1000" fill="#160c04" opacity="0.4"/><rect x="240.0" y="0" width="30.0" height="1000" fill="#a86a31" opacity="0.5"/><rect x="240.0" y="0" width="2.5" height="1000" fill="#ffd89a" opacity="0.16"/><rect x="268.0" y="0" width="2" height="1000" fill="#160c04" opacity="0.4"/><rect x="290.0" y="0" width="30.0" height="1000" fill="#6d4322" opacity="0.5"/><rect x="290.0" y="0" width="2.5" height="1000" fill="#ffd89a" opacity="0.16"/><rect x="318.0" y="0" width="2" height="1000" fill="#160c04" opacity="0.4"/><rect x="340.0" y="0" width="30.0" height="1000" fill="#a86a31" opacity="0.5"/><rect x="340.0" y="0" width="2.5" height="1000" fill="#ffd89a" opacity="0.16"/><rect x="368.0" y="0" width="2" height="1000" fill="#160c04" opacity="0.4"/><rect x="390.0" y="0" width="30.0" height="1000" fill="#6d4322" opacity="0.5"/><rect x="390.0" y="0" width="2.5" height="1000" fill="#ffd89a" opacity="0.16"/><rect x="418.0" y="0" width="2" height="1000" fill="#160c04" opacity="0.4"/><rect x="440.0" y="0" width="30.0" height="1000" fill="#a86a31" opacity="0.5"/><rect x="440.0" y="0" width="2.5" height="1000" fill="#ffd89a" opacity="0.16"/><rect x="468.0" y="0" width="2" height="1000" fill="#160c04" opacity="0.4"/><rect x="490.0" y="0" width="30.0" height="1000" fill="#6d4322" opacity="0.5"/><rect x="490.0" y="0" width="2.5" height="1000" fill="#ffd89a" opacity="0.16"/><rect x="518.0" y="0" width="2" height="1000" fill="#160c04" opacity="0.4"/><rect x="540.0" y="0" width="30.0" height="1000" fill="#a86a31" opacity="0.5"/><rect x="540.0" y="0" width="2.5" height="1000" fill="#ffd89a" opacity="0.16"/><rect x="568.0" y="0" width="2" height="1000" fill="#160c04" opacity="0.4"/><rect x="590.0" y="0" width="30.0" height="1000" fill="#6d4322" opacity="0.5"/><rect x="590.0" y="0" width="2.5" height="1000" fill="#ffd89a" opacity="0.16"/><rect x="618.0" y="0" width="2" height="1000" fill="#160c04" opacity="0.4"/>
     <path d="M660 730 L660 250 L920 300 L920 730" fill="none" stroke="#ffd89a" stroke-width="3.5" stroke-linecap="square" opacity="0.92"/>
     <path d="M920 470 L1180 520 L1180 730 L920 730" fill="none" stroke="#ffd89a" stroke-width="3" stroke-linecap="square" opacity="0.6"/>
     <rect x="700" y="430" width="150" height="300" fill="#ffd89a" opacity="0.18"/>
     <line x1="60" y1="730" x2="1540" y2="730" fill="none" stroke="#ffd89a" stroke-width="2.5" stroke-linecap="square" opacity="0.45"/>
     <line x1="1300" y1="770" x2="1300" y2="470" stroke="#a7c34e" stroke-width="4" opacity="0.85"/><circle cx="1366" cy="440" r="8" fill="#a7c34e" opacity="0.7"/><circle cx="1388" cy="455" r="8" fill="#a7c34e" opacity="0.7"/><circle cx="1404" cy="477" r="8" fill="#a7c34e" opacity="0.7"/><circle cx="1412" cy="505" r="8" fill="#a7c34e" opacity="0.7"/><circle cx="1344" cy="479" r="8" fill="#a7c34e" opacity="0.7"/><circle cx="1345" cy="502" r="8" fill="#a7c34e" opacity="0.7"/><circle cx="1335" cy="527" r="8" fill="#a7c34e" opacity="0.7"/><circle cx="1314" cy="550" r="8" fill="#a7c34e" opacity="0.7"/><circle cx="1293" cy="493" r="8" fill="#a7c34e" opacity="0.7"/><circle cx="1272" cy="508" r="8" fill="#a7c34e" opacity="0.7"/><circle cx="1243" cy="519" r="8" fill="#a7c34e" opacity="0.7"/><circle cx="1208" cy="522" r="8" fill="#a7c34e" opacity="0.7"/><circle cx="1247" cy="471" r="8" fill="#a7c34e" opacity="0.7"/><circle cx="1218" cy="469" r="8" fill="#a7c34e" opacity="0.7"/><circle cx="1188" cy="459" r="8" fill="#a7c34e" opacity="0.7"/><circle cx="1162" cy="440" r="8" fill="#a7c34e" opacity="0.7"/><circle cx="1235" cy="429" r="8" fill="#a7c34e" opacity="0.7"/><circle cx="1218" cy="411" r="8" fill="#a7c34e" opacity="0.7"/><circle cx="1208" cy="386" r="8" fill="#a7c34e" opacity="0.7"/><circle cx="1208" cy="358" r="8" fill="#a7c34e" opacity="0.7"/><circle cx="1267" cy="394" r="8" fill="#a7c34e" opacity="0.7"/><circle cx="1272" cy="372" r="8" fill="#a7c34e" opacity="0.7"/><circle cx="1288" cy="349" r="8" fill="#a7c34e" opacity="0.7"/><circle cx="1314" cy="330" r="8" fill="#a7c34e" opacity="0.7"/><circle cx="1320" cy="390" r="8" fill="#a7c34e" opacity="0.7"/><circle cx="1345" cy="378" r="8" fill="#a7c34e" opacity="0.7"/><circle cx="1376" cy="372" r="8" fill="#a7c34e" opacity="0.7"/><circle cx="1412" cy="375" r="8" fill="#a7c34e" opacity="0.7"/><circle cx="1360" cy="419" r="8" fill="#a7c34e" opacity="0.7"/><circle cx="1388" cy="425" r="8" fill="#a7c34e" opacity="0.7"/>
  <rect width="1600" height="1000" fill="url(#sun)"/>
  <rect width="1600" height="1000" fill="url(#vig)"/>
  <rect width="1600" height="1000" filter="url(#grain)" opacity="0.06"/>
</svg>