<svg xmlns="http://www.w3.org/2000/svg" viewBox="0 0 1600 1000" width="1600" height="1000" role="img">
  <defs>
    <linearGradient id="bg" gradientTransform="rotate(155 0.5 0.5)">
      <stop offset="0" stop-color="#0B0B0C"/>
      <stop offset="0.55" stop-color="#17140F"/>
      <stop offset="1" stop-color="#221B12"/>
    </linearGradient>
    <radialGradient id="glow" cx="0.5" cy="0.18" r="0.75">
      <stop offset="0" stop-color="#C67C3D" stop-opacity="0.55"/>
      <stop offset="0.4" stop-color="#C67C3D" stop-opacity="0.1925"/>
      <stop offset="1" stop-color="#C67C3D" stop-opacity="0"/>
    </radialGradient>
    <radialGradient id="vig" cx="0.5" cy="0.42" r="0.85">
      <stop offset="0.55" stop-color="#000" stop-opacity="0"/>
      <stop offset="1" stop-color="#000" stop-opacity="0.6"/>
    </radialGradient>
    <filter id="grain">
      <feTurbulence type="fractalNoise" baseFrequency="0.9" numOctaves="2" stitchTiles="stitch" result="n"/>
      <feColorMatrix in="n" type="matrix" values="0 0 0 0 0  0 0 0 0 0  0 0 0 0 0  0 0 0 0.6 0"/>
    </filter>
  </defs>
  <rect width="1600" height="1000" fill="url(#bg)"/>
  <rect width="1600" height="1000" fill="url(#glow)"/>
  <line x1="140" y1="230" x2="1460" y2="230" fill="none" stroke="#C67C3D" stroke-width="2" stroke-linecap="square" opacity="0.85"/>
     <line x1="100" y1="330" x2="1420" y2="330" fill="none" stroke="#C67C3D" stroke-width="2" stroke-linecap="square" opacity="0.85"/>
     <line x1="180" y1="230" x2="140" y2="330" fill="none" stroke="#C67C3D" stroke-width="2" stroke-linecap="square" opacity="0.75"/><line x1="242" y1="230" x2="202" y2="330" fill="none" stroke="#C67C3D" stroke-width="2" stroke-linecap="square" opacity="0.75"/><line x1="304" y1="230" x2="264" y2="330" fill="none" stroke="#C67C3D" stroke-width="2" stroke-linecap="square" opacity="0.75"/><line x1="366" y1="230" x2="326" y2="330" fill="none" stroke="#C67C3D" stroke-width="2" stroke-linecap="square" opacity="0.75"/><line x1="428" y1="230" x2="388" y2="330" fill="none" stroke="#C67C3D" stroke-width="2" stroke-linecap="square" opacity="0.75"/><line x1="490" y1="230" x2="450" y2="330" fill="none" stroke="#C67C3D" stroke-width="2" stroke-linecap="square" opacity="0.75"/><line x1="552" y1="230" x2="512" y2="330" fill="none" stroke="#C67C3D" stroke-width="2" stroke-linecap="square" opacity="0.75"/><line x1="614" y1="230" x2="574" y2="330" fill="none" stroke="#C67C3D" stroke-width="2" stroke-linecap="square" opacity="0.75"/><line x1="676" y1="230" x2="636" y2="330" fill="none" stroke="#C67C3D" stroke-width="2" stroke-linecap="square" opacity="0.75"/><line x1="738" y1="230" x2="698" y2="330" fill="none" stroke="#C67C3D" stroke-width="2" stroke-linecap="square" opacity="0.75"/><line x1="800" y1="230" x2="760" y2="330" fill="none" stroke="#C67C3D" stroke-width="2" stroke-linecap="square" opacity="0.75"/><line x1="862" y1="230" x2="822" y2="330" fill="none" stroke="#C67C3D" stroke-width="2" stroke-linecap="square" opacity="0.75"/><line x1="924" y1="230" x2="884" y2="330" fill="none" stroke="#C67C3D" stroke-width="2" stroke-linecap="square" opacity="0.75"/><line x1="986" y1="230" x2="946" y2="330" fill="none" stroke="#C67C3D" stroke-width="2" stroke-linecap="square" opacity="0.75"/><line x1="1048" y1="230" x2="1008" y2="330" fill="none" stroke="#C67C3D" stroke-width="2" stroke-linecap="square" opacity="0.75"/><line x1="1110" y1="230" x2="1070" y2="330" fill="none" stroke="#C67C3D" stroke-width="2" stroke-linecap="square" opacity="0.75"/><line x1="1172" y1="230" x2="1132" y2="330" fill="none" stroke="#C67C3D" stroke-width="2" stroke-linecap="square" opacity="0.75"/><line x1="1234" y1="230" x2="1194" y2="330" fill="none" stroke="#C67C3D" stroke-width="2" stroke-linecap="square" opacity="0.75"/><line x1="1296" y1="230" x2="1256" y2="330" fill="none" stroke="#C67C3D" stroke-width="2" stroke-linecap="square" opacity="0.75"/><line x1="1358" y1="230" x2="1318" y2="330" fill="none" stroke="#C67C3D" stroke-width="2" stroke-linecap="square" opacity="0.75"/><line x1="1420" y1="230" x2="1380" y2="330" fill="none" stroke="#C67C3D" stroke-width="2" stroke-linecap="square" opacity="0.75"/><line x1="1482" y1="230" x2="1442" y2="330" fill="none" stroke="#C67C3D" stroke-width="2" stroke-linecap="square" opacity="0.75"/><line x1="260" y1="330" x2="260" y2="940" fill="none" stroke="#C67C3D" stroke-width="2" stroke-linecap="square" opacity="0.85"/><line x1="1340" y1="330" x2="1340" y2="940" fill="none" stroke="#C67C3D" stroke-width="2" stroke-linecap="square" opacity="0.85"/>
     <line x1="120" y1="940" x2="1480" y2="940" fill="none" stroke="#F3EEE4" stroke-width="1.5" opacity="0.28"/>
  <rect width="1600" height="1000" fill="url(#vig)"/>
  <rect width="1600" height="1000" filter="url(#grain)" opacity="0.05"/>
</svg>