<svg xmlns="http://www.w3.org/2000/svg" viewBox="0 0 1600 1000" width="1600" height="1000" role="img">
  <defs>
    <linearGradient id="bg" gradientTransform="rotate(135 0.5 0.5)">
      <stop offset="0" stop-color="#20130a"/>
      <stop offset="0.45" stop-color="#3a2411"/>
      <stop offset="0.8" stop-color="#6d4322"/>
      <stop offset="1" stop-color="#ffd89a"/>
    </linearGradient>
    <radialGradient id="sun" cx="0.5" cy="0.14" r="0.62">
      <stop offset="0" stop-color="#ffd89a" stop-opacity="1"/>
      <stop offset="0.26" stop-color="#e6a24e" stop-opacity="0.55"/>
      <stop offset="0.65" stop-color="#f9bb71" stop-opacity="0.14"/>
      <stop offset="1" stop-color="#f9bb71" stop-opacity="0"/>
    </radialGradient>
    <radialGradient id="vig" cx="0.5" cy="0.5" r="0.82">
      <stop offset="0.52" stop-color="#20130a" stop-opacity="0"/>
      <stop offset="1" stop-color="#100802" stop-opacity="0.5"/>
    </radialGradient>
    <filter id="grain">
      <feTurbulence type="fractalNoise" baseFrequency="0.85" numOctaves="2" stitchTiles="stitch" result="n"/>
      <feColorMatrix in="n" type="matrix" values="0 0 0 0 0  0 0 0 0 0  0 0 0 0 0  0 0 0 0.55 0"/>
    </filter>
  </defs>
  <rect width="1600" height="1000" fill="url(#bg)"/>
  <line x1="120" y1="210" x2="1480" y2="210" fill="none" stroke="#ffd89a" stroke-width="7" stroke-linecap="square" opacity="0.92"/>
     <line x1="90" y1="320" x2="1430" y2="320" fill="none" stroke="#ffd89a" stroke-width="6" stroke-linecap="square" opacity="0.85"/>
     <line x1="150" y1="210" x2="106" y2="320" fill="none" stroke="#a86a31" stroke-width="6" stroke-linecap="square" opacity="0.7"/><line x1="142" y1="320" x2="142" y2="930" fill="none" stroke="#ffd89a" stroke-width="3" opacity="0.12"/><line x1="208" y1="210" x2="164" y2="320" fill="none" stroke="#a86a31" stroke-width="6" stroke-linecap="square" opacity="0.7"/><line x1="200" y1="320" x2="200" y2="930" fill="none" stroke="#ffd89a" stroke-width="3" opacity="0.12"/><line x1="266" y1="210" x2="222" y2="320" fill="none" stroke="#a86a31" stroke-width="6" stroke-linecap="square" opacity="0.7"/><line x1="258" y1="320" x2="258" y2="930" fill="none" stroke="#ffd89a" stroke-width="3" opacity="0.12"/><line x1="324" y1="210" x2="280" y2="320" fill="none" stroke="#a86a31" stroke-width="6" stroke-linecap="square" opacity="0.7"/><line x1="316" y1="320" x2="316" y2="930" fill="none" stroke="#ffd89a" stroke-width="3" opacity="0.12"/><line x1="382" y1="210" x2="338" y2="320" fill="none" stroke="#a86a31" stroke-width="6" stroke-linecap="square" opacity="0.7"/><line x1="374" y1="320" x2="374" y2="930" fill="none" stroke="#ffd89a" stroke-width="3" opacity="0.12"/><line x1="440" y1="210" x2="396" y2="320" fill="none" stroke="#a86a31" stroke-width="6" stroke-linecap="square" opacity="0.7"/><line x1="432" y1="320" x2="432" y2="930" fill="none" stroke="#ffd89a" stroke-width="3" opacity="0.12"/><line x1="498" y1="210" x2="454" y2="320" fill="none" stroke="#a86a31" stroke-width="6" stroke-linecap="square" opacity="0.7"/><line x1="490" y1="320" x2="490" y2="930" fill="none" stroke="#ffd89a" stroke-width="3" opacity="0.12"/><line x1="556" y1="210" x2="512" y2="320" fill="none" stroke="#a86a31" stroke-width="6" stroke-linecap="square" opacity="0.7"/><line x1="548" y1="320" x2="548" y2="930" fill="none" stroke="#ffd89a" stroke-width="3" opacity="0.12"/><line x1="614" y1="210" x2="570" y2="320" fill="none" stroke="#a86a31" stroke-width="6" stroke-linecap="square" opacity="0.7"/><line x1="606" y1="320" x2="606" y2="930" fill="none" stroke="#ffd89a" stroke-width="3" opacity="0.12"/><line x1="672" y1="210" x2="628" y2="320" fill="none" stroke="#a86a31" stroke-width="6" stroke-linecap="square" opacity="0.7"/><line x1="664" y1="320" x2="664" y2="930" fill="none" stroke="#ffd89a" stroke-width="3" opacity="0.12"/><line x1="730" y1="210" x2="686" y2="320" fill="none" stroke="#a86a31" stroke-width="6" stroke-linecap="square" opacity="0.7"/><line x1="722" y1="320" x2="722" y2="930" fill="none" stroke="#ffd89a" stroke-width="3" opacity="0.12"/><line x1="788" y1="210" x2="744" y2="320" fill="none" stroke="#a86a31" stroke-width="6" stroke-linecap="square" opacity="0.7"/><line x1="780" y1="320" x2="780" y2="930" fill="none" stroke="#ffd89a" stroke-width="3" opacity="0.12"/><line x1="846" y1="210" x2="802" y2="320" fill="none" stroke="#a86a31" stroke-width="6" stroke-linecap="square" opacity="0.7"/><line x1="838" y1="320" x2="838" y2="930" fill="none" stroke="#ffd89a" stroke-width="3" opacity="0.12"/><line x1="904" y1="210" x2="860" y2="320" fill="none" stroke="#a86a31" stroke-width="6" stroke-linecap="square" opacity="0.7"/><line x1="896" y1="320" x2="896" y2="930" fill="none" stroke="#ffd89a" stroke-width="3" opacity="0.12"/><line x1="962" y1="210" x2="918" y2="320" fill="none" stroke="#a86a31" stroke-width="6" stroke-linecap="square" opacity="0.7"/><line x1="954" y1="320" x2="954" y2="930" fill="none" stroke="#ffd89a" stroke-width="3" opacity="0.12"/><line x1="1020" y1="210" x2="976" y2="320" fill="none" stroke="#a86a31" stroke-width="6" stroke-linecap="square" opacity="0.7"/><line x1="1012" y1="320" x2="1012" y2="930" fill="none" stroke="#ffd89a" stroke-width="3" opacity="0.12"/><line x1="1078" y1="210" x2="1034" y2="320" fill="none" stroke="#a86a31" stroke-width="6" stroke-linecap="square" opacity="0.7"/><line x1="1070" y1="320" x2="1070" y2="930" fill="none" stroke="#ffd89a" stroke-width="3" opacity="0.12"/><line x1="1136" y1="210" x2="1092" y2="320" fill="none" stroke="#a86a31" stroke-width="6" stroke-linecap="square" opacity="0.7"/><line x1="1128" y1="320" x2="1128" y2="930" fill="none" stroke="#ffd89a" stroke-width="3" opacity="0.12"/><line x1="1194" y1="210" x2="1150" y2="320" fill="none" stroke="#a86a31" stroke-width="6" stroke-linecap="square" opacity="0.7"/><line x1="1186" y1="320" x2="1186" y2="930" fill="none" stroke="#ffd89a" stroke-width="3" opacity="0.12"/><line x1="1252" y1="210" x2="1208" y2="320" fill="none" stroke="#a86a31" stroke-width="6" stroke-linecap="square" opacity="0.7"/><line x1="1244" y1="320" x2="1244" y2="930" fill="none" stroke="#ffd89a" stroke-width="3" opacity="0.12"/><line x1="1310" y1="210" x2="1266" y2="320" fill="none" stroke="#a86a31" stroke-width="6" stroke-linecap="square" opacity="0.7"/><line x1="1302" y1="320" x2="1302" y2="930" fill="none" stroke="#ffd89a" stroke-width="3" opacity="0.12"/><line x1="1368" y1="210" x2="1324" y2="320" fill="none" stroke="#a86a31" stroke-width="6" stroke-linecap="square" opacity="0.7"/><line x1="1360" y1="320" x2="1360" y2="930" fill="none" stroke="#ffd89a" stroke-width="3" opacity="0.12"/><line x1="1426" y1="210" x2="1382" y2="320" fill="none" stroke="#a86a31" stroke-width="6" stroke-linecap="square" opacity="0.7"/><line x1="1418" y1="320" x2="1418" y2="930" fill="none" stroke="#ffd89a" stroke-width="3" opacity="0.12"/><line x1="1484" y1="210" x2="1440" y2="320" fill="none" stroke="#a86a31" stroke-width="6" stroke-linecap="square" opacity="0.7"/><line x1="1476" y1="320" x2="1476" y2="930" fill="none" stroke="#ffd89a" stroke-width="3" opacity="0.12"/><line x1="250" y1="320" x2="250" y2="940" fill="none" stroke="#ffd89a" stroke-width="9" stroke-linecap="square" opacity="0.92"/><line x1="1350" y1="320" x2="1350" y2="940" fill="none" stroke="#ffd89a" stroke-width="9" stroke-linecap="square" opacity="0.92"/>
     <rect x="0" y="940.0" width="1600" height="60.0" fill="#a86a31" opacity="0.5"/><line x1="0" y1="940.0" x2="1600" y2="940.0" stroke="#160c04" stroke-width="2.5" opacity="0.55"/><line x1="0" y1="943.0" x2="1600" y2="943.0" stroke="#ffd89a" stroke-width="1" opacity="0.22"/>
     <line x1="90" y1="940" x2="1510" y2="940" fill="none" stroke="#f6efe2" stroke-width="1.6" opacity="0.3"/>
  <rect width="1600" height="1000" fill="url(#sun)"/>
  <rect width="1600" height="1000" fill="url(#vig)"/>
  <rect width="1600" height="1000" filter="url(#grain)" opacity="0.06"/>
</svg>