<svg xmlns="http://www.w3.org/2000/svg" viewBox="0 0 1600 1000" width="1600" height="1000" role="img">
  <defs>
    <linearGradient id="bg" gradientTransform="rotate(118 0.5 0.5)">
      <stop offset="0" stop-color="#20130a"/>
      <stop offset="0.45" stop-color="#3a2411"/>
      <stop offset="0.8" stop-color="#6d4322"/>
      <stop offset="1" stop-color="#e6a24e"/>
    </linearGradient>
    <radialGradient id="sun" cx="0.78" cy="0.32" r="0.62">
      <stop offset="0" stop-color="#ffd89a" stop-opacity="0.85"/>
      <stop offset="0.26" stop-color="#e6a24e" stop-opacity="0.47"/>
      <stop offset="0.65" stop-color="#f9bb71" stop-opacity="0.14"/>
      <stop offset="1" stop-color="#f9bb71" stop-opacity="0"/>
    </radialGradient>
    <radialGradient id="vig" cx="0.5" cy="0.5" r="0.82">
      <stop offset="0.52" stop-color="#20130a" stop-opacity="0"/>
      <stop offset="1" stop-color="#100802" stop-opacity="0.5"/>
    </radialGradient>
    <filter id="grain">
      <feTurbulence type="fractalNoise" baseFrequency="0.85" numOctaves="2" stitchTiles="stitch" result="n"/>
      <feColorMatrix in="n" type="matrix" values="0 0 0 0 0  0 0 0 0 0  0 0 0 0 0  0 0 0 0.55 0"/>
    </filter>
  </defs>
  <rect width="1600" height="1000" fill="url(#bg)"/>
  <rect x="40.0" y="0" width="35.8" height="1000" fill="#6d4322" opacity="0.62"/><rect x="40.0" y="0" width="2.5" height="1000" fill="#ffd89a" opacity="0.16"/><rect x="73.8" y="0" width="2" height="1000" fill="#160c04" opacity="0.4"/><rect x="94.3" y="0" width="35.8" height="1000" fill="#a86a31" opacity="0.62"/><rect x="94.3" y="0" width="2.5" height="1000" fill="#ffd89a" opacity="0.16"/><rect x="128.1" y="0" width="2" height="1000" fill="#160c04" opacity="0.4"/><rect x="148.6" y="0" width="35.8" height="1000" fill="#6d4322" opacity="0.62"/><rect x="148.6" y="0" width="2.5" height="1000" fill="#ffd89a" opacity="0.16"/><rect x="182.4" y="0" width="2" height="1000" fill="#160c04" opacity="0.4"/><rect x="202.9" y="0" width="35.8" height="1000" fill="#a86a31" opacity="0.62"/><rect x="202.9" y="0" width="2.5" height="1000" fill="#ffd89a" opacity="0.16"/><rect x="236.7" y="0" width="2" height="1000" fill="#160c04" opacity="0.4"/><rect x="257.1" y="0" width="35.8" height="1000" fill="#6d4322" opacity="0.62"/><rect x="257.1" y="0" width="2.5" height="1000" fill="#ffd89a" opacity="0.16"/><rect x="291.0" y="0" width="2" height="1000" fill="#160c04" opacity="0.4"/><rect x="311.4" y="0" width="35.8" height="1000" fill="#a86a31" opacity="0.62"/><rect x="311.4" y="0" width="2.5" height="1000" fill="#ffd89a" opacity="0.16"/><rect x="345.3" y="0" width="2" height="1000" fill="#160c04" opacity="0.4"/><rect x="365.7" y="0" width="35.8" height="1000" fill="#6d4322" opacity="0.62"/><rect x="365.7" y="0" width="2.5" height="1000" fill="#ffd89a" opacity="0.16"/><rect x="399.5" y="0" width="2" height="1000" fill="#160c04" opacity="0.4"/><rect x="420.0" y="0" width="35.8" height="1000" fill="#a86a31" opacity="0.62"/><rect x="420.0" y="0" width="2.5" height="1000" fill="#ffd89a" opacity="0.16"/><rect x="453.8" y="0" width="2" height="1000" fill="#160c04" opacity="0.4"/><rect x="474.3" y="0" width="35.8" height="1000" fill="#6d4322" opacity="0.62"/><rect x="474.3" y="0" width="2.5" height="1000" fill="#ffd89a" opacity="0.16"/><rect x="508.1" y="0" width="2" height="1000" fill="#160c04" opacity="0.4"/><rect x="528.6" y="0" width="35.8" height="1000" fill="#a86a31" opacity="0.62"/><rect x="528.6" y="0" width="2.5" height="1000" fill="#ffd89a" opacity="0.16"/><rect x="562.4" y="0" width="2" height="1000" fill="#160c04" opacity="0.4"/><rect x="582.9" y="0" width="35.8" height="1000" fill="#6d4322" opacity="0.62"/><rect x="582.9" y="0" width="2.5" height="1000" fill="#ffd89a" opacity="0.16"/><rect x="616.7" y="0" width="2" height="1000" fill="#160c04" opacity="0.4"/><rect x="637.1" y="0" width="35.8" height="1000" fill="#a86a31" opacity="0.62"/><rect x="637.1" y="0" width="2.5" height="1000" fill="#ffd89a" opacity="0.16"/><rect x="671.0" y="0" width="2" height="1000" fill="#160c04" opacity="0.4"/><rect x="691.4" y="0" width="35.8" height="1000" fill="#6d4322" opacity="0.62"/><rect x="691.4" y="0" width="2.5" height="1000" fill="#ffd89a" opacity="0.16"/><rect x="725.3" y="0" width="2" height="1000" fill="#160c04" opacity="0.4"/><rect x="745.7" y="0" width="35.8" height="1000" fill="#a86a31" opacity="0.62"/><rect x="745.7" y="0" width="2.5" height="1000" fill="#ffd89a" opacity="0.16"/><rect x="779.5" y="0" width="2" height="1000" fill="#160c04" opacity="0.4"/><rect x="800.0" y="0" width="35.8" height="1000" fill="#6d4322" opacity="0.62"/><rect x="800.0" y="0" width="2.5" height="1000" fill="#ffd89a" opacity="0.16"/><rect x="833.8" y="0" width="2" height="1000" fill="#160c04" opacity="0.4"/><rect x="854.3" y="0" width="35.8" height="1000" fill="#a86a31" opacity="0.62"/><rect x="854.3" y="0" width="2.5" height="1000" fill="#ffd89a" opacity="0.16"/><rect x="888.1" y="0" width="2" height="1000" fill="#160c04" opacity="0.4"/><rect x="908.6" y="0" width="35.8" height="1000" fill="#6d4322" opacity="0.62"/><rect x="908.6" y="0" width="2.5" height="1000" fill="#ffd89a" opacity="0.16"/><rect x="942.4" y="0" width="2" height="1000" fill="#160c04" opacity="0.4"/><rect x="962.9" y="0" width="35.8" height="1000" fill="#a86a31" opacity="0.62"/><rect x="962.9" y="0" width="2.5" height="1000" fill="#ffd89a" opacity="0.16"/><rect x="996.7" y="0" width="2" height="1000" fill="#160c04" opacity="0.4"/><rect x="1017.1" y="0" width="35.8" height="1000" fill="#6d4322" opacity="0.62"/><rect x="1017.1" y="0" width="2.5" height="1000" fill="#ffd89a" opacity="0.16"/><rect x="1051.0" y="0" width="2" height="1000" fill="#160c04" opacity="0.4"/><rect x="1071.4" y="0" width="35.8" height="1000" fill="#a86a31" opacity="0.62"/><rect x="1071.4" y="0" width="2.5" height="1000" fill="#ffd89a" opacity="0.16"/><rect x="1105.3" y="0" width="2" height="1000" fill="#160c04" opacity="0.4"/><rect x="1125.7" y="0" width="35.8" height="1000" fill="#6d4322" opacity="0.62"/><rect x="1125.7" y="0" width="2.5" height="1000" fill="#ffd89a" opacity="0.16"/><rect x="1159.5" y="0" width="2" height="1000" fill="#160c04" opacity="0.4"/><rect x="1180.0" y="0" width="35.8" height="1000" fill="#a86a31" opacity="0.62"/><rect x="1180.0" y="0" width="2.5" height="1000" fill="#ffd89a" opacity="0.16"/><rect x="1213.8" y="0" width="2" height="1000" fill="#160c04" opacity="0.4"/><rect x="1234.3" y="0" width="35.8" height="1000" fill="#6d4322" opacity="0.62"/><rect x="1234.3" y="0" width="2.5" height="1000" fill="#ffd89a" opacity="0.16"/><rect x="1268.1" y="0" width="2" height="1000" fill="#160c04" opacity="0.4"/><rect x="1288.6" y="0" width="35.8" height="1000" fill="#a86a31" opacity="0.62"/><rect x="1288.6" y="0" width="2.5" height="1000" fill="#ffd89a" opacity="0.16"/><rect x="1322.4" y="0" width="2" height="1000" fill="#160c04" opacity="0.4"/><rect x="1342.9" y="0" width="35.8" height="1000" fill="#6d4322" opacity="0.62"/><rect x="1342.9" y="0" width="2.5" height="1000" fill="#ffd89a" opacity="0.16"/><rect x="1376.7" y="0" width="2" height="1000" fill="#160c04" opacity="0.4"/><rect x="1397.1" y="0" width="35.8" height="1000" fill="#a86a31" opacity="0.62"/><rect x="1397.1" y="0" width="2.5" height="1000" fill="#ffd89a" opacity="0.16"/><rect x="1431.0" y="0" width="2" height="1000" fill="#160c04" opacity="0.4"/><rect x="1451.4" y="0" width="35.8" height="1000" fill="#6d4322" opacity="0.62"/><rect x="1451.4" y="0" width="2.5" height="1000" fill="#ffd89a" opacity="0.16"/><rect x="1485.3" y="0" width="2" height="1000" fill="#160c04" opacity="0.4"/><rect x="1505.7" y="0" width="35.8" height="1000" fill="#a86a31" opacity="0.62"/><rect x="1505.7" y="0" width="2.5" height="1000" fill="#ffd89a" opacity="0.16"/><rect x="1539.5" y="0" width="2" height="1000" fill="#160c04" opacity="0.4"/>
  <rect width="1600" height="1000" fill="url(#sun)"/>
  <rect width="1600" height="1000" fill="url(#vig)"/>
  <rect width="1600" height="1000" filter="url(#grain)" opacity="0.06"/>
</svg>