<svg xmlns="http://www.w3.org/2000/svg" viewBox="0 0 1600 1000" width="1600" height="1000" role="img">
  <defs>
    <linearGradient id="bg" gradientTransform="rotate(150 0.5 0.5)">
      <stop offset="0" stop-color="#20130a"/>
      <stop offset="0.45" stop-color="#3a2411"/>
      <stop offset="0.8" stop-color="#6d4322"/>
      <stop offset="1" stop-color="#f9bb71"/>
    </linearGradient>
    <radialGradient id="sun" cx="0.52" cy="0.2" r="0.62">
      <stop offset="0" stop-color="#ffd89a" stop-opacity="0.95"/>
      <stop offset="0.26" stop-color="#e6a24e" stop-opacity="0.52"/>
      <stop offset="0.65" stop-color="#f9bb71" stop-opacity="0.14"/>
      <stop offset="1" stop-color="#f9bb71" stop-opacity="0"/>
    </radialGradient>
    <radialGradient id="vig" cx="0.5" cy="0.5" r="0.82">
      <stop offset="0.52" stop-color="#20130a" stop-opacity="0"/>
      <stop offset="1" stop-color="#100802" stop-opacity="0.5"/>
    </radialGradient>
    <filter id="grain">
      <feTurbulence type="fractalNoise" baseFrequency="0.85" numOctaves="2" stitchTiles="stitch" result="n"/>
      <feColorMatrix in="n" type="matrix" values="0 0 0 0 0  0 0 0 0 0  0 0 0 0 0  0 0 0 0.55 0"/>
    </filter>
  </defs>
  <rect width="1600" height="1000" fill="url(#bg)"/>
  <rect x="0" y="910.0" width="1600" height="90.0" fill="#a86a31" opacity="0.5"/><line x1="0" y1="910.0" x2="1600" y2="910.0" stroke="#160c04" stroke-width="2.5" opacity="0.55"/><line x1="0" y1="913.0" x2="1600" y2="913.0" stroke="#ffd89a" stroke-width="1" opacity="0.22"/>
     <rect x="240" y="345" width="1120" height="30" fill="#a86a31" opacity="0.6"/>
     <line x1="240" y1="345" x2="1360" y2="345" fill="none" stroke="#ffd89a" stroke-width="3" stroke-linecap="square" opacity="0.92"/>
     <line x1="240" y1="375" x2="1360" y2="375" fill="none" stroke="#ffd89a" stroke-width="1.6" opacity="0.4"/>
     <line x1="300" y1="375" x2="300" y2="918" fill="none" stroke="#ffd89a" stroke-width="9" stroke-linecap="square" opacity="0.92"/>
     <line x1="1300" y1="375" x2="1300" y2="918" fill="none" stroke="#ffd89a" stroke-width="9" stroke-linecap="square" opacity="0.92"/>
     <line x1="800" y1="375" x2="800" y2="918" fill="none" stroke="#f6efe2" stroke-width="4" opacity="0.3"/>
     <path d="M560 850 q60 -110 200 -110 h180 q120 0 170 110" fill="none" stroke="#ffd89a" stroke-width="1.6" opacity="0.5"/>
     <circle cx="660" cy="850" r="34" fill="none" stroke="#ffd89a" stroke-width="1.6" opacity="0.5"/>
     <circle cx="980" cy="850" r="34" fill="none" stroke="#ffd89a" stroke-width="1.6" opacity="0.5"/>
  <rect width="1600" height="1000" fill="url(#sun)"/>
  <rect width="1600" height="1000" fill="url(#vig)"/>
  <rect width="1600" height="1000" filter="url(#grain)" opacity="0.06"/>
</svg>