<svg xmlns="http://www.w3.org/2000/svg" viewBox="0 0 150 150" width="150" height="150">
  <rect width="150" height="150" rx="28" fill="#0b0b0c"/>
  <g transform="translate(-42 4) scale(0.9)">
    <line x1="16" y1="64" x2="16" y2="130" stroke="#c67c3d" stroke-width="3.4" opacity="0.42"/><line x1="23.6" y1="60.7" x2="23.6" y2="130" stroke="#c67c3d" stroke-width="3.4" opacity="0.47"/><line x1="31.2" y1="57.4" x2="31.2" y2="130" stroke="#c67c3d" stroke-width="3.4" opacity="0.53"/><line x1="38.8" y1="54.1" x2="38.8" y2="130" stroke="#c67c3d" stroke-width="3.4" opacity="0.58"/><line x1="46.4" y1="50.8" x2="46.4" y2="130" stroke="#c67c3d" stroke-width="3.4" opacity="0.64"/><line x1="54" y1="47.5" x2="54" y2="130" stroke="#c67c3d" stroke-width="3.4" opacity="0.70"/><line x1="61.599999999999994" y1="44.2" x2="61.599999999999994" y2="130" stroke="#c67c3d" stroke-width="3.4" opacity="0.75"/><line x1="69.19999999999999" y1="40.900000000000006" x2="69.19999999999999" y2="130" stroke="#c67c3d" stroke-width="3.4" opacity="0.80"/><line x1="76.8" y1="37.6" x2="76.8" y2="130" stroke="#c67c3d" stroke-width="3.4" opacity="0.86"/>
    <!-- structure bois : ossature / maison-carport, en blanc -->
    <path d="M92 130 L92 30 L150 50 L150 130" fill="none" stroke="#f3eee4" stroke-width="3" stroke-linejoin="round"/>
    <!-- pergola-terrasse couverte, en cuivre -->
    <path d="M120 74 L198 82 M120 82 L198 90" fill="none" stroke="#c67c3d" stroke-width="2.6"/>
    <line x1="196" y1="90" x2="196" y2="128" stroke="#c67c3d" stroke-width="2.6"/>
    <line x1="158" y1="86" x2="158" y2="128" stroke="#c67c3d" stroke-width="2.2" opacity="0.75"/>
    <path d="M120 122 L202 127" fill="none" stroke="#c67c3d" stroke-width="2.2"/>
    <!-- banc / assise -->
    <path d="M132 108 L172 111 M132 98 L132 110" fill="none" stroke="#c67c3d" stroke-width="2" opacity="0.85"/>
    <line x1="218" y1="130" x2="218" y2="80" stroke="#9bbe3e" stroke-width="2.4" opacity="0.85"/><line x1="218" y1="96" x2="209" y2="86" stroke="#9bbe3e" stroke-width="1.6" opacity="0.7"/><line x1="218" y1="92" x2="227" y2="80" stroke="#9bbe3e" stroke-width="1.6" opacity="0.7"/><circle cx="218.0" cy="58.0" r="2.60" fill="#9bbe3e" opacity="0.90"/><circle cx="215.2" cy="61.0" r="2.57" fill="#9bbe3e" opacity="0.89"/><circle cx="218.5" cy="51.8" r="2.54" fill="#9bbe3e" opacity="0.88"/><circle cx="222.0" cy="64.1" r="2.51" fill="#9bbe3e" opacity="0.86"/><circle cx="210.4" cy="56.5" r="2.48" fill="#9bbe3e" opacity="0.85"/><circle cx="225.2" cy="52.7" r="2.45" fill="#9bbe3e" opacity="0.84"/><circle cx="215.6" cy="68.4" r="2.42" fill="#9bbe3e" opacity="0.83"/><circle cx="213.3" cy="47.6" r="2.39" fill="#9bbe3e" opacity="0.82"/><circle cx="228.2" cy="62.3" r="2.36" fill="#9bbe3e" opacity="0.81"/><circle cx="207.4" cy="63.0" r="2.33" fill="#9bbe3e" opacity="0.80"/><circle cx="223.1" cy="45.4" r="2.30" fill="#9bbe3e" opacity="0.78"/><circle cx="221.8" cy="72.0" r="2.27" fill="#9bbe3e" opacity="0.77"/><circle cx="206.5" cy="50.3" r="2.24" fill="#9bbe3e" opacity="0.76"/><circle cx="231.5" cy="54.6" r="2.21" fill="#9bbe3e" opacity="0.75"/><circle cx="209.7" cy="71.5" r="2.18" fill="#9bbe3e" opacity="0.74"/><circle cx="216.1" cy="41.1" r="2.15" fill="#9bbe3e" opacity="0.73"/><circle cx="229.7" cy="69.4" r="2.12" fill="#9bbe3e" opacity="0.71"/><circle cx="202.2" cy="58.8" r="2.09" fill="#9bbe3e" opacity="0.70"/><circle cx="229.5" cy="44.8" r="2.06" fill="#9bbe3e" opacity="0.69"/><circle cx="217.2" cy="77.2" r="2.03" fill="#9bbe3e" opacity="0.68"/><circle cx="207.0" cy="42.9" r="2.00" fill="#9bbe3e" opacity="0.67"/><circle cx="235.4" cy="60.7" r="1.97" fill="#9bbe3e" opacity="0.66"/><circle cx="203.2" cy="69.8" r="1.94" fill="#9bbe3e" opacity="0.64"/><circle cx="222.0" cy="37.4" r="1.91" fill="#9bbe3e" opacity="0.63"/><circle cx="227.3" cy="76.7" r="1.88" fill="#9bbe3e" opacity="0.62"/><circle cx="199.7" cy="51.3" r="1.85" fill="#9bbe3e" opacity="0.61"/><circle cx="235.7" cy="48.6" r="1.82" fill="#9bbe3e" opacity="0.60"/><circle cx="210.3" cy="79.1" r="1.79" fill="#9bbe3e" opacity="0.58"/><circle cx="211.1" cy="36.0" r="1.76" fill="#9bbe3e" opacity="0.57"/><circle cx="236.3" cy="69.0" r="1.73" fill="#9bbe3e" opacity="0.56"/>
    <!-- sol -->
    <line x1="10" y1="130" x2="250" y2="130" stroke="#c67c3d" stroke-width="2" opacity="0.7"/>
  </g>
</svg>