<svg xmlns="http://www.w3.org/2000/svg" viewBox="10 28 236 106" width="236" height="106" role="img" aria-label="L'Esprit Bois">
  <!-- Variante nav : même dessin que logo-mark.svg, cadrage resserré et traits
       épaissis. Affiché à 44 px de haut, l'échelle tombe à 0,42 : les épaisseurs
       d'origine (2 à 3,4) passaient sous le pixel et le logo devenait
       fantomatique. Les opacités basses sont remontées pour la même raison.
       Ne pas resynchroniser sur logo-mark.svg sans recalculer. -->
  <line x1="16" y1="64" x2="16" y2="130" stroke="#c67c3d" stroke-width="4.2" opacity="0.50"/><line x1="23.6" y1="60.7" x2="23.6" y2="130" stroke="#c67c3d" stroke-width="4.2" opacity="0.56"/><line x1="31.2" y1="57.4" x2="31.2" y2="130" stroke="#c67c3d" stroke-width="4.2" opacity="0.62"/><line x1="38.8" y1="54.1" x2="38.8" y2="130" stroke="#c67c3d" stroke-width="4.2" opacity="0.68"/><line x1="46.4" y1="50.8" x2="46.4" y2="130" stroke="#c67c3d" stroke-width="4.2" opacity="0.74"/><line x1="54" y1="47.5" x2="54" y2="130" stroke="#c67c3d" stroke-width="4.2" opacity="0.80"/><line x1="61.6" y1="44.2" x2="61.6" y2="130" stroke="#c67c3d" stroke-width="4.2" opacity="0.85"/><line x1="69.2" y1="40.9" x2="69.2" y2="130" stroke="#c67c3d" stroke-width="4.2" opacity="0.90"/><line x1="76.8" y1="37.6" x2="76.8" y2="130" stroke="#c67c3d" stroke-width="4.2" opacity="0.95"/>
    <!-- structure bois : ossature / maison-carport, en noir -->
    <path d="M92 130 L92 30 L150 50 L150 130" fill="none" stroke="#141414" stroke-width="4.4" stroke-linejoin="round"/>
    <!-- pergola-terrasse couverte, en cuivre -->
    <path d="M120 74 L198 82 M120 82 L198 90" fill="none" stroke="#c67c3d" stroke-width="3.4"/>
    <line x1="196" y1="90" x2="196" y2="128" stroke="#c67c3d" stroke-width="3.4"/>
    <line x1="158" y1="86" x2="158" y2="128" stroke="#c67c3d" stroke-width="3" opacity="0.85"/>
    <path d="M120 122 L202 127" fill="none" stroke="#c67c3d" stroke-width="3"/>
    <!-- banc / assise -->
    <path d="M132 108 L172 111 M132 98 L132 110" fill="none" stroke="#c67c3d" stroke-width="2.8" opacity="0.9"/>
    <line x1="218" y1="130" x2="218" y2="80" stroke="#9bbe3e" stroke-width="3.2" opacity="0.9"/><line x1="218" y1="96" x2="209" y2="86" stroke="#9bbe3e" stroke-width="2.2" opacity="0.8"/><line x1="218" y1="92" x2="227" y2="80" stroke="#9bbe3e" stroke-width="2.2" opacity="0.8"/><circle cx="218.0" cy="58.0" r="2.99" fill="#9bbe3e" opacity="0.95"/><circle cx="215.2" cy="61.0" r="2.96" fill="#9bbe3e" opacity="0.94"/><circle cx="218.5" cy="51.8" r="2.92" fill="#9bbe3e" opacity="0.93"/><circle cx="222.0" cy="64.1" r="2.89" fill="#9bbe3e" opacity="0.92"/><circle cx="210.4" cy="56.5" r="2.85" fill="#9bbe3e" opacity="0.91"/><circle cx="225.2" cy="52.7" r="2.82" fill="#9bbe3e" opacity="0.90"/><circle cx="215.6" cy="68.4" r="2.78" fill="#9bbe3e" opacity="0.89"/><circle cx="213.3" cy="47.6" r="2.75" fill="#9bbe3e" opacity="0.88"/><circle cx="228.2" cy="62.3" r="2.71" fill="#9bbe3e" opacity="0.87"/><circle cx="207.4" cy="63.0" r="2.68" fill="#9bbe3e" opacity="0.86"/><circle cx="223.1" cy="45.4" r="2.65" fill="#9bbe3e" opacity="0.85"/><circle cx="221.8" cy="72.0" r="2.61" fill="#9bbe3e" opacity="0.84"/><circle cx="206.5" cy="50.3" r="2.58" fill="#9bbe3e" opacity="0.83"/><circle cx="231.5" cy="54.6" r="2.54" fill="#9bbe3e" opacity="0.83"/><circle cx="209.7" cy="71.5" r="2.51" fill="#9bbe3e" opacity="0.82"/><circle cx="216.1" cy="41.1" r="2.47" fill="#9bbe3e" opacity="0.81"/><circle cx="229.7" cy="69.4" r="2.44" fill="#9bbe3e" opacity="0.80"/><circle cx="202.2" cy="58.8" r="2.40" fill="#9bbe3e" opacity="0.79"/><circle cx="229.5" cy="44.8" r="2.37" fill="#9bbe3e" opacity="0.78"/><circle cx="217.2" cy="77.2" r="2.33" fill="#9bbe3e" opacity="0.77"/><circle cx="207.0" cy="42.9" r="2.30" fill="#9bbe3e" opacity="0.76"/><circle cx="235.4" cy="60.7" r="2.27" fill="#9bbe3e" opacity="0.76"/><circle cx="203.2" cy="69.8" r="2.23" fill="#9bbe3e" opacity="0.75"/><circle cx="222.0" cy="37.4" r="2.20" fill="#9bbe3e" opacity="0.74"/><circle cx="227.3" cy="76.7" r="2.16" fill="#9bbe3e" opacity="0.73"/><circle cx="199.7" cy="51.3" r="2.13" fill="#9bbe3e" opacity="0.72"/><circle cx="235.7" cy="48.6" r="2.09" fill="#9bbe3e" opacity="0.71"/><circle cx="210.3" cy="79.1" r="2.06" fill="#9bbe3e" opacity="0.70"/><circle cx="211.1" cy="36.0" r="2.02" fill="#9bbe3e" opacity="0.70"/><circle cx="236.3" cy="69.0" r="1.99" fill="#9bbe3e" opacity="0.70"/>
    <!-- sol -->
    <line x1="12" y1="130" x2="242" y2="130" stroke="#c67c3d" stroke-width="2.8" opacity="0.9"/>
</svg>
